Coordinates
version=1
nRows=16
nColumns=40
inDegrees=yes

Units are S.I. units (second, meters, Newtons, ...)
Angles are in degrees.

endheader
time	pelvis_tilt	pelvis_list	pelvis_rotation	pelvis_tx	pelvis_ty	pelvis_tz	hip_flexion_r	hip_adduction_r	hip_rotation_r	knee_angle_r	knee_angle_r_beta	ankle_angle_r	subtalar_angle_r	mtp_angle_r	hip_flexion_l	hip_adduction_l	hip_rotation_l	knee_angle_l	knee_angle_l_beta	ankle_angle_l	subtalar_angle_l	mtp_angle_l	lumbar_extension	lumbar_bending	lumbar_rotation	arm_flex_r	arm_add_r	arm_rot_r	elbow_flex_r	pro_sup_r	wrist_flex_r	wrist_dev_r	arm_flex_l	arm_add_l	arm_rot_l	elbow_flex_l	pro_sup_l	wrist_flex_l	wrist_dev_l
      0.23000000	    -15.96542435	     -2.41052149	    -10.04514559	      1.00020575	      0.98278506	     -0.34361310	     42.80548930	     10.25848651	     -3.33146990	     37.54125997	     37.54125997	      0.30801858	      0.00000000	      0.00000000	     14.73839068	     -3.26442376	     -2.14923991	     92.35758777	     92.35758777	    -12.27988926	      0.00000000	      0.00000000	      4.84207214	      8.39244531	      1.57394705	    -36.87758289	    -24.51071211	     -8.32886281	    108.39843603	     38.65862091	      0.00000000	      0.00000000	    -30.35957248	    -15.18353320	      1.40243579	    116.16317752	     39.44382858	      0.00000000	      0.00000000
      0.24000000	    -14.94233091	     -3.05687496	    -10.00964665	      0.99570725	      0.97744992	     -0.34435842	     41.64044590	     10.86345578	     -2.40568085	     41.79500760	     41.79500760	      3.29513395	      0.00000000	      0.00000000	     17.37147181	     -4.35961402	     -1.47979351	     96.92185194	     96.92185194	    -11.66240276	      0.00000000	      0.00000000	      2.61414520	      9.18084477	      2.90945037	    -33.96127925	    -24.78599393	     -8.17793765	    107.16910292	     39.62013607	      0.00000000	      0.00000000	    -29.29677579	    -14.85132947	      1.75660154	    112.61767811	     40.38335623	      0.00000000	      0.00000000
      0.25000000	    -14.51445341	     -2.91446696	     -9.90260084	      0.99273451	      0.97163917	     -0.34507905	     40.78995251	     10.67851294	     -1.79371360	     46.03200210	     46.03200210	      8.03412481	      0.00000000	      0.00000000	     20.54765667	     -4.76018635	     -1.05815359	    100.63943800	    100.63943800	     -9.34483322	      0.00000000	      0.00000000	      1.61665255	      9.20179749	      4.09501246	    -31.37437350	    -25.23795504	     -7.21776824	    105.25241660	     41.52715156	      0.00000000	      0.00000000	    -28.77978840	    -14.67331129	      2.61699298	    108.17623933	     42.43451110	      0.00000000	      0.00000000
      0.26000000	    -14.02679342	     -3.02340863	     -9.35831526	      0.98894293	      0.96755113	     -0.34549309	     39.01788705	     10.81566588	     -0.46615248	     48.45893181	     48.45893181	     10.71523263	      0.00000000	      0.00000000	     24.13286599	     -5.18025195	      0.03961074	    103.81236094	    103.81236094	     -8.24261016	      0.00000000	      0.00000000	      0.31895854	      9.26573904	      4.98835099	    -28.22613998	    -25.16159931	     -6.65343507	    103.38301119	     42.37498984	      0.00000000	      0.00000000	    -28.15097699	    -14.57328557	      3.48138713	    104.64754274	     43.33207900	      0.00000000	      0.00000000
      0.27000000	    -14.29033159	     -2.63963942	     -8.60062890	      0.98679140	      0.96425849	     -0.34620555	     37.18014810	     10.18700916	      0.14659100	     49.49262601	     49.49262601	     14.55651672	      0.00000000	      0.00000000	     28.39970728	     -5.07385963	      0.99594090	    105.80734361	    105.80734361	     -6.14582669	      0.00000000	      0.00000000	      0.60247022	      8.84390346	      5.28021344	    -25.16294666	    -25.50519151	     -4.92912999	    100.61376965	     44.47423834	      0.00000000	      0.00000000	    -28.01387132	    -14.56532835	      4.62705481	    100.53397899	     45.43709959	      0.00000000	      0.00000000
      0.28000000	    -14.08469597	     -2.51321194	     -8.22378201	      0.98455642	      0.96291056	     -0.34639848	     34.67296263	      9.77760353	      0.49280669	     50.01939477	     50.01939477	     15.39896324	      0.00000000	      0.00000000	     32.14141814	     -5.23325467	      1.60153089	    106.97814006	    106.97814006	     -5.66784285	      0.00000000	      0.00000000	     -0.14602944	      8.58178013	      6.52907533	    -23.05911940	    -25.37976391	     -4.74994652	    100.21640690	     44.84378996	      0.00000000	      0.00000000	    -28.42412046	    -14.58369392	      5.01666135	     99.26035646	     45.74264749	      0.00000000	      0.00000000
      0.29000000	    -13.89375945	     -2.43649480	     -7.73714587	      0.98436068	      0.96324567	     -0.34707690	     32.01049406	      9.26348717	      0.53300762	     50.56493813	     50.56493813	     15.36369617	      0.00000000	      0.00000000	     35.35381463	     -5.41432231	      1.86489964	    106.63155316	    106.63155316	     -5.36434297	      0.00000000	      0.00000000	     -0.25197350	      8.44331209	      7.91191658	    -22.02322547	    -25.46023725	     -4.67469708	    100.21507021	     44.92315290	      0.00000000	      0.00000000	    -29.06516430	    -14.61865421	      5.09353660	     98.83945375	     45.78684012	      0.00000000	      0.00000000
      0.30000000	    -14.57880753	     -2.07026111	     -6.85637151	      0.98203437	      0.96467234	     -0.34780113	     29.10513432	      8.62810252	      0.97290693	     48.06248526	     48.06248526	     18.66546468	      0.00000000	      0.00000000	     40.10780061	     -4.47925732	      2.97962865	    106.60839015	    106.60839015	     -3.98714273	      0.00000000	      0.00000000	      0.36645825	      7.87610599	      8.11425635	    -19.46328408	    -25.20511671	     -4.04347290	    100.37941615	     46.11436158	      0.00000000	      0.00000000	    -30.06800856	    -15.38845766	      5.57677224	     97.74301110	     46.63929752	      0.00000000	      0.00000000
      0.31000000	    -14.76838322	     -1.78184205	     -6.50288061	      0.98080290	      0.96776322	     -0.34819313	     26.42704974	      7.88032741	      0.57836500	     47.23448237	     47.23448237	     18.49967765	      0.00000000	      0.00000000	     43.64901863	     -4.20494823	      3.07856893	    105.21983280	    105.21983280	     -3.62428181	      0.00000000	      0.00000000	      0.58152556	      7.41259651	      9.54038048	    -18.27138187	    -25.29101480	     -3.97933005	    101.38039548	     46.47055911	      0.00000000	      0.00000000	    -31.08160343	    -15.96665920	      5.22777978	     98.27860425	     46.88572072	      0.00000000	      0.00000000
      0.32000000	    -15.32400978	     -0.95940252	     -5.69670207	      0.98219006	      0.97189654	     -0.34916745	     22.92092773	      6.58585458	      0.68467578	     44.04853808	     44.04853808	     18.01846672	      0.00000000	      0.00000000	     47.00855893	     -3.06373141	      2.68444511	    102.79443717	    102.79443717	     -3.22314525	      0.00000000	      0.00000000	      1.67470823	      6.27719182	      9.94109516	    -18.16644327	    -24.66062721	     -3.89842722	    104.18503237	     47.25388365	      0.00000000	      0.00000000	    -33.18474181	    -16.64235195	      4.48636212	    100.65116063	     47.46158010	      0.00000000	      0.00000000
      0.33000000	    -15.64905197	     -0.23075085	     -4.97586663	      0.98366727	      0.97705955	     -0.34923588	     19.34710383	      5.39239783	      0.69417215	     41.23862884	     41.23862884	     16.55809883	      0.00000000	      0.00000000	     49.76081000	     -2.11436545	      2.43930133	     99.76623169	     99.76623169	     -2.79773377	      0.00000000	      0.00000000	      2.45266452	      5.09913250	     10.61571123	    -17.88688627	    -24.16057573	     -4.04277580	    107.09832722	     48.10448312	      0.00000000	      0.00000000	    -35.31037715	    -17.36646534	      3.48859642	    103.21957015	     48.06814643	      0.00000000	      0.00000000
      0.34000000	    -16.00233683	      0.44368541	     -4.42835960	      0.98579195	      0.98322479	     -0.34904512	     15.79138761	      4.30418855	      0.55402558	     38.27845190	     38.27845190	     14.02870308	      0.00000000	      0.00000000	     51.95203251	     -1.30746364	      1.83638125	     96.02929712	     96.02929712	     -2.25593819	      0.00000000	      0.00000000	      3.22192169	      4.00147698	     11.24109603	    -17.66059352	    -23.57252653	     -4.06208726	    110.07017593	     48.95200098	      0.00000000	      0.00000000	    -37.46426960	    -18.08606921	      2.58147698	    105.69701826	     48.62088972	      0.00000000	      0.00000000
      0.35000000	    -16.09841226	      1.03299498	     -3.74829515	      0.98854425	      0.99042162	     -0.34875803	     11.90903340	      3.22733453	      0.06925446	     34.82397439	     34.82397439	     10.08052986	      0.00000000	      0.00000000	     53.47341819	     -0.46757456	      1.14560781	     91.73810271	     91.73810271	     -1.74636906	      0.00000000	      0.00000000	      3.72360223	      3.03390032	     11.71077237	    -17.47540009	    -22.93376789	     -3.99754608	    112.93025226	     50.05368480	      0.00000000	      0.00000000	    -39.56946460	    -18.77109714	      1.55466246	    108.14063157	     49.25852075	      0.00000000	      0.00000000
      0.36000000	    -16.58551666	      0.81321948	     -3.52881142	      0.98999758	      0.99729433	     -0.34747325	      9.54706444	      3.16217476	     -0.55872783	     33.58722721	     33.58722721	      8.07044760	      0.00000000	      0.00000000	     55.01877380	     -0.79711320	      0.76311678	     86.83445102	     86.83445102	     -1.31821911	      0.00000000	      0.00000000	      4.49066043	      3.06563958	     12.37140392	    -16.87962124	    -22.70432169	     -3.93098558	    114.98356708	     50.39368733	      0.00000000	      0.00000000	    -41.32715369	    -19.35653661	      1.19974203	    109.40965794	     49.44098305	      0.00000000	      0.00000000
      0.37000000	    -16.64586927	      1.86596167	     -2.19209292	      0.99472054	      1.00538571	     -0.34753201	      5.05546839	      1.67220384	     -1.94803148	     27.96229966	     27.96229966	     -0.62117202	      0.00000000	      0.00000000	     55.69761273	      0.74561796	     -0.60712626	     81.62642417	     81.62642417	     -1.26810576	      0.00000000	      0.00000000	      5.09780119	      1.26498137	     12.17393913	    -17.39159450	    -21.67464270	     -3.31965657	    118.60919377	     51.66682893	      0.00000000	      0.00000000	    -43.63969929	    -19.85381438	     -0.20906922	    112.28912609	     50.07300600	      0.00000000	      0.00000000
      0.38000000	    -17.04961010	      1.16369384	     -1.93960535	      0.99663749	      1.01227884	     -0.34608165	      3.04897093	      2.21364243	     -2.88708629	     27.06915652	     27.06915652	     -2.91891349	      0.00000000	      0.00000000	     56.40138391	      0.07383420	     -1.10743207	     75.95111148	     75.95111148	     -0.93734266	      0.00000000	      0.00000000	      5.77470426	      1.78958536	     12.60217039	    -16.93042748	    -21.63923362	     -3.27302492	    120.57624154	     51.99794260	      0.00000000	      0.00000000	    -45.40472156	    -20.31329615	     -0.62110834	    113.43026545	     50.23627237	      0.00000000	      0.00000000
